<svg width="26" height="25" viewBox="0 0 26 25" fill="none" xmlns="http://www.w3.org/2000/svg">
<path d="M23.2638 1.02658C22.1431 0.131903 20.6985 -0.200348 19.307 0.118363L11.284 1.87231L8.58436 0.540186C7.14183 -0.172226 5.41704 -0.172226 3.97451 0.540186L2.35075 1.34113C0.919678 2.04833 0.0302046 3.47941 0.0302046 5.074L0 22.2636C0 23.805 0.754074 24.4622 1.20298 24.7174C1.44045 24.8507 1.81228 24.9986 2.30805 24.9986C2.78403 24.9986 3.37354 24.8622 4.06617 24.4477L6.34609 23.027L9.5707 24.5654C10.7789 25.0038 12.0871 25.1122 13.3484 24.883L20.7506 23.5696C23.2284 23.1197 25.0261 20.9648 25.0261 18.4463V4.69072C25.0261 3.25652 24.3845 1.92127 23.2638 1.02658ZM2.9788 22.6708C2.51636 22.9499 2.26847 22.9291 2.22889 22.9051C2.20598 22.8916 2.08204 22.725 2.08204 22.2667L2.11224 5.07713C2.11224 4.27827 2.55698 3.56273 3.27251 3.20861L4.89523 2.40766C5.00667 2.35246 5.12124 2.30455 5.23685 2.26393V21.2626L2.97776 22.6708H2.9788ZM7.32097 21.1845V2.26393C7.43763 2.30455 7.55115 2.35246 7.6626 2.40766L10.4456 3.78145V22.6687C10.4216 22.6604 7.32097 21.1845 7.32097 21.1845ZM22.944 18.4463C22.944 19.9576 21.865 21.2501 20.3829 21.5199C20.3829 21.5199 12.6797 22.8791 12.5287 22.8937V3.73146L19.7601 2.1504C20.5371 1.97438 21.3411 2.1577 21.9629 2.65451C22.5868 3.15132 22.943 3.8929 22.943 4.68967V18.4442L22.944 18.4463ZM20.861 5.46041C20.9839 6.02284 20.6277 6.57798 20.0663 6.69984C20.0663 6.69984 15.7251 7.63931 15.6522 7.63931C15.1731 7.63931 14.7419 7.30706 14.6357 6.82066C14.5128 6.25823 14.869 5.70309 15.4304 5.58123L19.6205 4.66572C20.1892 4.54178 20.7391 4.90007 20.861 5.46041ZM20.861 9.62657C20.9839 10.189 20.6277 10.7441 20.0663 10.866C20.0663 10.866 15.7251 11.8055 15.6522 11.8055C15.1731 11.8055 14.7419 11.4732 14.6357 10.9868C14.5128 10.4244 14.869 9.86925 15.4304 9.74739L19.6205 8.83187C20.1892 8.70689 20.7391 9.06622 20.861 9.62657ZM20.861 13.7927C20.9839 14.3552 20.6277 14.9103 20.0663 15.0322C20.0663 15.0322 15.7251 15.9716 15.6522 15.9716C15.1731 15.9716 14.7419 15.6394 14.6357 15.153C14.5128 14.5905 14.869 14.0354 15.4304 13.9135L19.6205 12.998C20.1892 12.8762 20.7391 13.2324 20.861 13.7927ZM18.7654 18.4161C18.8883 18.9785 18.5321 19.5337 17.9707 19.6555C17.9707 19.6555 15.7251 20.1378 15.6512 20.1378C15.1721 20.1378 14.7409 19.8055 14.6347 19.3191C14.5118 18.7567 14.868 18.2016 15.4293 18.0797L17.5249 17.6225C18.0905 17.4985 18.6425 17.8568 18.7644 18.4172L18.7654 18.4161Z" fill="white"/>
</svg>
