<svg width="20" height="26" viewBox="0 0 20 26" fill="none" xmlns="http://www.w3.org/2000/svg">
<path d="M6.21894 10.8303C6.21894 11.4043 6.35463 11.9481 6.59632 12.4314C6.07688 13.0856 5.75356 13.897 5.7101 14.7814C4.71256 13.7522 4.09878 12.3606 4.09878 10.8314C4.09878 7.27825 7.40835 4.46991 11.1578 5.22616C13.3649 5.67199 15.1533 7.41888 15.624 9.58451C15.766 10.2387 15.7925 10.8793 15.7204 11.4918C15.6589 12.0106 15.1957 12.3939 14.6635 12.3939H14.6158C13.9883 12.3939 13.5473 11.8449 13.6162 11.2324C13.6628 10.821 13.6384 10.3887 13.5314 9.94805C13.2155 8.64284 12.1321 7.58554 10.8017 7.2845C8.37832 6.73762 6.21788 8.5418 6.21788 10.8314L6.21894 10.8303ZM2.09523 9.48138C2.38569 7.822 3.21149 6.3095 4.49207 5.12928C6.11293 3.63657 8.23521 2.89907 10.4603 3.03448C14.6508 3.30115 17.9275 6.90846 17.8787 11.2272C17.8586 13.0356 16.3173 14.4752 14.478 14.4752H11.9275C11.6688 13.6116 10.8653 12.9762 9.90271 12.9762C8.73132 12.9762 7.78255 13.9085 7.78255 15.0595C7.78255 16.2106 8.73132 17.1429 9.90271 17.1429C10.473 17.1429 10.9893 16.9189 11.3699 16.5585H14.478C17.4664 16.5585 19.9565 14.2199 19.9989 11.2845C20.0774 5.84595 15.9197 1.29385 10.5971 0.956351C7.77301 0.776142 5.09419 1.71885 3.04294 3.61053C1.45388 5.07407 0.39698 7.01158 0.0164115 9.09597C-0.0991372 9.7293 0.410761 10.3106 1.06483 10.3106C1.56519 10.3106 2.01148 9.96784 2.09523 9.48242V9.48138ZM9.92921 18.6429C6.01222 18.6429 2.62315 21.0304 1.49628 24.5825C1.32137 25.1314 1.63409 25.7158 2.19275 25.8877C2.75036 26.0533 3.34506 25.7512 3.51997 25.2033C3.89206 24.0294 4.63518 23.0273 5.58925 22.2606L7.07442 24.4491C7.45075 25.0033 8.27867 25.0033 8.655 24.4491L9.98434 22.4887L11.3137 24.4491C11.69 25.0033 12.5179 25.0033 12.8943 24.4491L14.3391 22.32C15.2582 23.0794 15.9738 24.0596 16.3363 25.2033C16.4784 25.6492 16.8961 25.9346 17.3487 25.9346C17.4537 25.9346 17.5586 25.9189 17.6646 25.8877C18.2233 25.7158 18.5349 25.1314 18.3611 24.5825C17.2342 21.0304 13.8451 18.6429 9.92815 18.6429H9.92921Z" fill="#ffffff"/>
</svg>
