<svg width="22" height="26" viewBox="0 0 22 26" fill="none" xmlns="http://www.w3.org/2000/svg">
<path d="M11.0232 13.436C14.4976 13.436 17.3232 10.633 17.3232 7.18626C17.3232 3.73953 14.4976 0.936523 11.0232 0.936523C7.54874 0.936523 4.72319 3.73953 4.72319 7.18626C4.72319 10.633 7.54874 13.436 11.0232 13.436ZM11.0232 3.01977C13.3395 3.01977 15.2232 4.88844 15.2232 7.18626C15.2232 9.48408 13.3395 11.3528 11.0232 11.3528C8.70689 11.3528 6.82319 9.48408 6.82319 7.18626C6.82319 4.88844 8.70689 3.01977 11.0232 3.01977ZM21.5232 24.8939C21.5232 25.4699 21.0538 25.9355 20.4732 25.9355C19.8925 25.9355 19.4232 25.4699 19.4232 24.8939C19.4232 21.9919 17.7043 19.4795 15.2232 18.3066V20.9065C16.4454 21.3367 17.3232 22.494 17.3232 23.8522V24.8939C17.3232 25.4699 16.8538 25.9355 16.2732 25.9355C15.6925 25.9355 15.2232 25.4699 15.2232 24.8939V23.8522C15.2232 23.2773 14.7528 22.8106 14.1732 22.8106C13.5936 22.8106 13.1232 23.2773 13.1232 23.8522V24.8939C13.1232 25.4699 12.6538 25.9355 12.0732 25.9355C11.4925 25.9355 11.0232 25.4699 11.0232 24.8939V23.8522C11.0232 22.494 11.901 21.3367 13.1232 20.9065V17.6775C12.7798 17.6285 12.4291 17.6025 12.0732 17.6025H9.97319C9.24344 17.6025 8.53889 17.7087 7.87319 17.9066V21.0076C8.50109 21.368 8.92319 22.0409 8.92319 22.8117C8.92319 23.9626 7.98344 24.8949 6.82319 24.8949C5.66294 24.8949 4.72319 23.9626 4.72319 22.8117C4.72319 22.0409 5.14529 21.368 5.77319 21.0076V18.9149C3.87059 20.2347 2.62319 22.4231 2.62319 24.8949C2.62319 25.4709 2.15384 25.9365 1.57319 25.9365C0.992543 25.9365 0.523193 25.4709 0.523193 24.8949C0.523193 19.7253 4.76204 15.5203 9.97319 15.5203H12.0732C17.2843 15.5203 21.5232 19.7243 21.5232 24.8939Z" fill="white"/>
</svg>
