<svg width="26" height="26" viewBox="0 0 26 26" fill="none" xmlns="http://www.w3.org/2000/svg">
<path d="M13.0232 0.936523C6.13048 0.936523 0.523193 6.54381 0.523193 13.4365C0.523193 20.3292 6.13048 25.9365 13.0232 25.9365C19.9159 25.9365 25.5232 20.3292 25.5232 13.4365C25.5232 6.54381 19.9159 0.936523 13.0232 0.936523ZM13.0232 23.8532C7.27944 23.8532 2.60653 19.1803 2.60653 13.4365C2.60653 11.8803 2.95028 10.4032 3.56486 9.07506L5.30028 10.899C5.57632 11.1886 5.95861 11.3532 6.35861 11.3532H8.38882C8.68882 11.3532 8.97632 11.4719 9.18882 11.6844L9.57736 12.073C9.78361 12.2792 9.89923 12.5584 9.89923 12.849V13.8521C9.89923 14.2532 10.0586 14.6365 10.3419 14.9199L11.5815 16.1594C11.8388 16.4167 11.9836 16.7657 11.9836 17.1292V19.5928C11.9836 20.2199 12.4919 20.7282 13.119 20.7282H13.3409C13.7836 20.7282 14.1857 20.4709 14.3711 20.0688L16.7055 15.0105C16.9836 14.4084 16.7701 13.6949 16.2086 13.3428L13.5399 11.6751C13.2034 11.4646 12.8149 11.3532 12.418 11.3532H10.9274C10.6034 11.3532 10.2919 11.224 10.0628 10.9949L9.44611 10.3782C9.12111 10.0532 9.12111 9.52715 9.44611 9.20319L9.99715 8.65215C10.2503 8.39902 10.6367 8.33652 10.9565 8.49694L11.8732 8.95527C12.2492 9.14382 12.7044 9.06986 13.0024 8.77194L13.0055 8.76882C13.3232 8.45111 13.3836 7.9584 13.1524 7.57402L12.2805 6.11986C12.0982 5.81569 12.1024 5.43861 12.2951 5.14069C12.6034 4.66465 13.1076 3.88861 13.6659 3.04069C17.0742 3.24902 20.0461 5.10319 21.7919 7.81777L20.1357 8.77298C19.6253 9.06673 19.3722 9.66361 19.5159 10.2344L20.169 12.8459C20.2628 13.2209 20.5159 13.5355 20.8617 13.7074L23.3336 14.9344C22.6055 19.9709 18.2597 23.8532 13.0253 23.8532H13.0232Z" fill="white"/>
</svg>
