<svg width="26" height="26" viewBox="0 0 26 26" fill="none" xmlns="http://www.w3.org/2000/svg">
<path d="M23.4402 6.89892V3.01969C23.4402 2.44468 22.9746 1.97801 22.3985 1.97801C21.8225 1.97801 21.3568 2.44468 21.3568 3.01969V5.48431L15.937 1.82697C14.1671 0.633199 11.8796 0.633199 10.1098 1.82697L2.81802 6.74787C1.38154 7.71768 0.523193 9.33125 0.523193 11.0656V20.7283C0.523193 23.6002 2.85969 25.9367 5.7316 25.9367H8.85665C9.4327 25.9367 9.89833 25.47 9.89833 24.895V16.5616C9.89833 15.9876 10.365 15.5199 10.94 15.5199H15.1067C15.6818 15.5199 16.1484 15.9876 16.1484 16.5616V24.895C16.1484 25.47 16.6141 25.9367 17.1901 25.9367H20.3152C23.1871 25.9367 25.5236 23.6002 25.5236 20.7283V11.0656C25.5236 9.41875 24.7486 7.88018 23.4402 6.89892ZM23.4402 20.7283C23.4402 22.4512 22.0381 23.8533 20.3152 23.8533H18.2318V16.5616C18.2318 14.8386 16.8297 13.4365 15.1067 13.4365H10.94C9.21707 13.4365 7.81497 14.8386 7.81497 16.5616V23.8533H5.7316C4.00866 23.8533 2.60656 22.4512 2.60656 20.7283V11.0656C2.60656 10.025 3.12115 9.05624 3.98366 8.47498L11.2754 3.55408C12.338 2.8374 13.7088 2.8374 14.7703 3.55408L22.0621 8.47498C22.9246 9.05624 23.4392 10.025 23.4392 11.0656L23.4402 20.7283Z" fill="white"/>
</svg>
