<svg width="26" height="26" viewBox="0 0 26 26" fill="none" xmlns="http://www.w3.org/2000/svg">
<path d="M20.8357 17.6032C20.8357 18.1792 20.3701 18.6449 19.794 18.6449H17.7107C17.1347 18.6449 16.669 18.1792 16.669 17.6032C16.669 17.0271 17.1347 16.5615 17.7107 16.5615H19.794C20.3701 16.5615 20.8357 17.0271 20.8357 17.6032ZM25.5232 16.5615V21.7699C25.5232 24.0678 23.6544 25.9365 21.3565 25.9365H4.68986C2.39194 25.9365 0.523193 24.0678 0.523193 21.7699V16.5615C0.523193 14.2636 2.39194 12.3949 4.68986 12.3949H5.73153V5.10319C5.73153 2.80527 7.60028 0.936523 9.89819 0.936523H16.1482C18.4461 0.936523 20.3149 2.80527 20.3149 5.10319V12.3949H21.3565C23.6544 12.3949 25.5232 14.2636 25.5232 16.5615ZM7.81486 12.3949H18.2315V5.10319C18.2315 3.95423 17.2972 3.01986 16.1482 3.01986H9.89819C8.74923 3.01986 7.81486 3.95423 7.81486 5.10319V12.3949ZM4.68986 23.8532H11.9815V14.4782H4.68986C3.5409 14.4782 2.60653 15.4126 2.60653 16.5615V21.7699C2.60653 22.9188 3.5409 23.8532 4.68986 23.8532ZM23.4399 16.5615C23.4399 15.4126 22.5055 14.4782 21.3565 14.4782H14.0649V23.8532H21.3565C22.5055 23.8532 23.4399 22.9188 23.4399 21.7699V16.5615ZM8.33569 16.5615H6.25236C5.67632 16.5615 5.21069 17.0271 5.21069 17.6032C5.21069 18.1792 5.67632 18.6449 6.25236 18.6449H8.33569C8.91173 18.6449 9.37736 18.1792 9.37736 17.6032C9.37736 17.0271 8.91173 16.5615 8.33569 16.5615ZM15.1065 6.14486C15.1065 5.56881 14.6409 5.10319 14.0649 5.10319H11.9815C11.4055 5.10319 10.9399 5.56881 10.9399 6.14486C10.9399 6.7209 11.4055 7.18652 11.9815 7.18652H14.0649C14.6409 7.18652 15.1065 6.7209 15.1065 6.14486Z" fill="white"/>
</svg>
