<svg width="25" height="26" viewBox="0 0 25 26" fill="none" xmlns="http://www.w3.org/2000/svg">
<path d="M5.20833 10.9167C5.20833 10.3417 5.675 9.875 6.25 9.875H9.375V6.75C9.375 6.175 9.84167 5.70833 10.4167 5.70833C10.9917 5.70833 11.4583 6.175 11.4583 6.75V9.875H14.5833C15.1583 9.875 15.625 10.3417 15.625 10.9167C15.625 11.4917 15.1583 11.9583 14.5833 11.9583H11.4583V15.0833C11.4583 15.6583 10.9917 16.125 10.4167 16.125C9.84167 16.125 9.375 15.6583 9.375 15.0833V11.9583H6.25C5.675 11.9583 5.20833 11.4917 5.20833 10.9167ZM25 9.875V20.2917C25 23.1635 22.6635 25.5 19.7917 25.5H9.375C6.82708 25.5 4.70937 23.6583 4.2625 21.2375C1.84167 20.7906 0 18.6729 0 16.125V5.70833C0 2.83646 2.33646 0.5 5.20833 0.5H15.625C18.1729 0.5 20.2906 2.34167 20.7375 4.7625C23.1583 5.20937 25 7.32708 25 9.875ZM5.20833 19.25H15.625C17.3479 19.25 18.75 17.8479 18.75 16.125V5.70833C18.75 3.98542 17.3479 2.58333 15.625 2.58333H5.20833C3.48542 2.58333 2.08333 3.98542 2.08333 5.70833V16.125C2.08333 17.8479 3.48542 19.25 5.20833 19.25ZM22.9167 9.875C22.9167 8.51875 22.0427 7.37292 20.8333 6.94167V16.125C20.8333 18.9969 18.4969 21.3333 15.625 21.3333H6.44167C6.87292 22.5427 8.01875 23.4167 9.375 23.4167H19.7917C21.5146 23.4167 22.9167 22.0146 22.9167 20.2917V9.875Z" fill="white"/>
</svg>
