<svg width="25" height="25" viewBox="0 0 25 25" fill="none" xmlns="http://www.w3.org/2000/svg">
<path d="M15.3199 16.7937H15.3209L19.0553 20.5271C19.2584 20.7302 19.5251 20.8323 19.7917 20.8323C20.0584 20.8323 20.3251 20.7302 20.5282 20.5271C20.9355 20.1198 20.9355 19.4604 20.5282 19.0542L16.7938 15.3198C16.0407 14.5656 15.6251 13.5646 15.6251 12.499C15.6251 11.4333 16.0397 10.4333 16.7938 9.67917L20.5272 5.94479C20.9344 5.5375 20.9344 4.87917 20.5272 4.47188C20.1199 4.06458 19.4615 4.06458 19.0542 4.47188L15.3188 8.20729C13.8147 9.71354 11.1876 9.71354 9.68132 8.20833C9.68132 8.20833 9.68132 8.20833 9.68028 8.20729H9.67924L5.94486 4.47292C5.53757 4.06563 4.87924 4.06563 4.47194 4.47292C4.06465 4.88021 4.06465 5.53854 4.47194 5.94583L8.20632 9.68125C8.95944 10.4354 9.37507 11.4365 9.37507 12.501C9.37507 13.5656 8.96049 14.5677 8.20632 15.3219V15.3229L4.47299 19.0562C4.06569 19.4625 4.06569 20.1219 4.47299 20.5292C4.88028 20.9365 5.53861 20.9365 5.9459 20.5292L9.68132 16.7948C10.4344 16.0417 11.4355 15.626 12.5011 15.626C13.5501 15.626 14.5772 16.051 15.3188 16.7927C15.3188 16.7927 15.3188 16.7927 15.3199 16.7937ZM12.5001 13.5417C12.1094 13.5417 11.724 13.5802 11.348 13.6521C11.4199 13.276 11.4584 12.8906 11.4584 12.5C11.4584 12.1094 11.4199 11.724 11.348 11.3479C11.724 11.4198 12.1084 11.4583 12.5001 11.4583C12.8917 11.4583 13.2761 11.4198 13.6522 11.3479C13.5803 11.724 13.5417 12.1083 13.5417 12.5C13.5417 12.8917 13.5803 13.276 13.6522 13.6521C13.2761 13.5802 12.8907 13.5417 12.5001 13.5417ZM14.748 3.90729C15.3397 1.60729 17.4136 0 19.7917 0C22.6636 0 25.0001 2.33646 25.0001 5.20833C25.0001 7.58646 23.3938 9.66042 21.0928 10.2521C21.0063 10.274 20.9188 10.2854 20.8324 10.2854C20.3678 10.2854 19.9449 9.97396 19.824 9.50313C19.6803 8.94583 20.0157 8.37813 20.573 8.23542C21.9522 7.88021 22.9157 6.63542 22.9157 5.20833C22.9157 3.48542 21.5136 2.08333 19.7907 2.08333C18.3636 2.08333 17.1188 3.04688 16.7636 4.42604C16.6209 4.98333 16.0563 5.32083 15.4959 5.175C14.9386 5.03229 14.6032 4.46354 14.7469 3.90729H14.748ZM25.0001 19.7917C25.0001 22.6635 22.6636 25 19.7917 25C17.4136 25 15.3397 23.3937 14.748 21.0927C14.6042 20.5354 14.9397 19.9677 15.4969 19.825C16.0574 19.6812 16.6219 20.0177 16.7647 20.574C17.1199 21.9531 18.3647 22.9167 19.7917 22.9167C21.5147 22.9167 22.9167 21.5146 22.9167 19.7917C22.9167 18.3646 21.9532 17.1208 20.574 16.7656C20.0167 16.6229 19.6813 16.0542 19.8251 15.4979C19.9678 14.9406 20.5344 14.6052 21.0928 14.749C23.3928 15.3406 25.0001 17.4135 25.0001 19.7917ZM10.2522 21.0938C9.66049 23.3937 7.58549 25 5.2084 25C2.33653 25 6.91735e-05 22.6635 6.91735e-05 19.7917C6.91735e-05 17.4135 1.60632 15.3396 3.90736 14.7479C4.46778 14.6042 5.0334 14.9396 5.17507 15.4969C5.31882 16.0542 4.9834 16.6219 4.42611 16.7646C3.04694 17.1198 2.0834 18.3646 2.0834 19.7906C2.0834 21.5135 3.48549 22.9156 5.2084 22.9156C6.63549 22.9156 7.87924 21.9521 8.23549 20.5719C8.37924 20.0146 8.94278 19.6792 9.50424 19.8229C10.0615 19.9667 10.3959 20.5344 10.2532 21.0917L10.2522 21.0938ZM6.91735e-05 5.20833C6.91735e-05 2.33646 2.33653 0 5.2084 0C7.58549 0 9.65944 1.60625 10.2522 3.90625C10.3959 4.46354 10.0605 5.03125 9.50319 5.175C8.9459 5.31979 8.37819 4.98333 8.23444 4.42604C7.87924 3.04583 6.63444 2.08229 5.20736 2.08229C3.48444 2.08229 2.08236 3.48438 2.08236 5.20729C2.08236 6.63437 3.0459 7.87917 4.42507 8.23438C4.98236 8.37708 5.31778 8.94583 5.17403 9.50208C5.05319 9.97187 4.63028 10.2844 4.16569 10.2844C4.07924 10.2844 3.99278 10.274 3.90528 10.251C1.60528 9.65937 -0.00201416 7.58542 -0.00201416 5.20729L6.91735e-05 5.20833Z" fill="white"/>
</svg>
