<svg width="26" height="26" viewBox="0 0 26 26" fill="none" xmlns="http://www.w3.org/2000/svg">
<path d="M13.0232 0.936523C10.5509 0.936523 8.13418 1.66964 6.07857 3.04315C4.02296 4.41667 2.4208 6.3689 1.4747 8.65298C0.528609 10.9371 0.281068 13.4504 0.763383 15.8751C1.2457 18.2999 2.43621 20.5272 4.18436 22.2754C5.93252 24.0235 8.15981 25.214 10.5846 25.6963C13.0093 26.1786 15.5227 25.9311 17.8067 24.985C20.0908 24.0389 22.043 22.4368 23.4166 20.3811C24.7901 18.3255 25.5232 15.9088 25.5232 13.4365C25.5196 10.1224 24.2015 6.94507 21.8581 4.60165C19.5146 2.25822 16.3373 0.940108 13.0232 0.936523ZM13.0232 23.8532C10.963 23.8532 8.94902 23.2423 7.23601 22.0977C5.523 20.9531 4.18787 19.3262 3.39945 17.4228C2.61104 15.5194 2.40476 13.425 2.80669 11.4043C3.20861 9.3837 4.20071 7.52762 5.6575 6.07083C7.1143 4.61403 8.97037 3.62194 10.991 3.22001C13.0116 2.81808 15.1061 3.02437 17.0095 3.81278C18.9129 4.60119 20.5397 5.93632 21.6843 7.64933C22.8289 9.36234 23.4399 11.3763 23.4399 13.4365C23.4368 16.1983 22.3384 18.846 20.3855 20.7989C18.4327 22.7517 15.7849 23.8502 13.0232 23.8532Z" fill="white"/>
<path d="M13.023 11.3545H11.9814C11.7051 11.3545 11.4401 11.4642 11.2448 11.6596C11.0494 11.8549 10.9397 12.1199 10.9397 12.3962C10.9397 12.6724 11.0494 12.9374 11.2448 13.1327C11.4401 13.3281 11.7051 13.4378 11.9814 13.4378H13.023V19.6878C13.023 19.9641 13.1328 20.229 13.3281 20.4244C13.5235 20.6197 13.7884 20.7295 14.0647 20.7295C14.341 20.7295 14.6059 20.6197 14.8013 20.4244C14.9966 20.229 15.1064 19.9641 15.1064 19.6878V13.4378C15.1064 12.8853 14.8869 12.3554 14.4962 11.9647C14.1055 11.574 13.5756 11.3545 13.023 11.3545Z" fill="white"/>
<path d="M13.0232 9.26855C13.8861 9.26855 14.5857 8.569 14.5857 7.70605C14.5857 6.84311 13.8861 6.14355 13.0232 6.14355C12.1602 6.14355 11.4607 6.84311 11.4607 7.70605C11.4607 8.569 12.1602 9.26855 13.0232 9.26855Z" fill="white"/>
</svg>
